<?xml version="1.0" encoding="UTF-8" standalone="no"?>
<svg width="81px" height="58px" viewBox="0 0 81 58" version="1.1" xmlns="http://www.w3.org/2000/svg" xmlns:xlink="http://www.w3.org/1999/xlink">
    <!-- Generator: Sketch 3.6.1 (26313) - http://www.bohemiancoding.com/sketch -->
    <title>Standard/resend 3</title>
    <desc>Created with Sketch.</desc>
    <defs>
        <path d="M5,6.5 C5,6.22385763 5.23079681,6 5.50043583,6 L12.4995642,6 C12.7759472,6 13,6.23193359 13,6.5 C13,6.77614237 12.7692032,7 12.4995642,7 L5.50043583,7 C5.22405275,7 5,6.76806641 5,6.5 Z M0,0.5 C0,0.223857625 0.225639343,0 0.493741035,0 L12.506259,0 C12.7789446,0 13,0.231933594 13,0.5 C13,0.776142375 12.7743607,1 12.506259,1 L0.493741035,1 C0.221055391,1 0,0.768066406 0,0.5 Z" id="path-1"></path>
    </defs>
    <g id="main" stroke="none" stroke-width="1" fill="none" fill-rule="evenodd">
        <g id="Reset-password-sent" transform="translate(-120.000000, -189.000000)">
            <g id="Standard/resend-3" transform="translate(120.000000, 182.000000)">
                <g id="wings-round-copy" transform="translate(0.000000, 26.000000)">
                    <g id="Rectangle-117">
                        <use fill="none" xlink:href="#path-1"></use>
                        <use fill="#32BBAC" fill-rule="evenodd" xlink:href="#path-1"></use>
                    </g>
                </g>
                <path d="M13,12.006722 C13,9.79387055 14.7966766,8 16.9926786,8 L63.0073214,8 C65.2124169,8 67,9.80068426 67,12.0050741 L67,39 L61,40 L55,46 L55.0441895,51 L16.99332,51 C14.7878703,51 13,49.2070888 13,46.993278 L13,12.006722 Z" id="box" stroke="#A0A0A0" stroke-width="2"></path>
                <path d="M15.840213,11.7701369 C14.2490645,10.2402325 14.7585764,9 16.9578981,9 L63.0421019,9 C65.2505309,9 65.754773,10.2365428 64.159787,11.7701369 L41.4347397,33.6204842 C40.6423548,34.3823698 39.3582426,34.3829442 38.5652603,33.6204842 L15.840213,11.7701369 Z" id="top" stroke="#A0A0A0"></path>
                <path d="M67,65 C74.7319865,65 81,58.7319865 81,51 C81,43.2680135 74.7319865,37 67,37 C59.2680135,37 53,43.2680135 53,51 C53,58.7319865 59.2680135,65 67,65 Z M67.65,49 C66.83,46.67 64.61,45 62,45 C58.6862915,45 56,47.6862915 56,51 C56,54.3137085 58.6862915,57 62,57 C64.61,57 66.83,55.33 67.65,53 L72,53 L72,57 L76,57 L76,53 L78,53 L78,49 L67.65,49 Z M62,53 C60.8954305,53 60,52.1045695 60,51 C60,49.8954305 60.8954305,49 62,49 C63.1045695,49 64,49.8954305 64,51 C64,52.1045695 63.1045695,53 62,53 Z" id="Oval-Copy-2" fill="#A0A0A0"></path>
            </g>
        </g>
    </g>
</svg>